HIERARCHY
ROOT Hips
{
	OFFSET 0.000000 100.481300 0.000000
	CHANNELS 6 Xposition Yposition Zposition Xrotation Yrotation Zrotation 
	JOINT Spine
	{
		OFFSET -0.279200 12.230698 -2.892100
		CHANNELS 3 Xrotation Yrotation Zrotation
		JOINT Spine1
		{
			OFFSET -0.232667 10.192268 -1.242267
			CHANNELS 3 Xrotation Yrotation Zrotation
			JOINT Spine1_split
			{
				OFFSET -0.232667 10.192268 -1.242267
				CHANNELS 3 Xrotation Yrotation Zrotation
				JOINT Spine2
				{
					OFFSET -0.232667 10.192268 -1.242267
					CHANNELS 3 Xrotation Yrotation Zrotation
					JOINT Neck
					{
						OFFSET -0.418800 17.814194 8.416900
						CHANNELS 3 Xrotation Yrotation Zrotation
						JOINT Head
						{
							OFFSET 0.000000 7.031097 3.806800
							CHANNELS 3 Xrotation Yrotation Zrotation
							JOINT HeadTop_End
							{
								OFFSET 0.000000 24.646606 12.978600
								CHANNELS 3 Xrotation Yrotation Zrotation
								End Site
								{
									OFFSET 0.000000 0.000000 0.000000
								}
							}
						}
					}
					JOINT LeftShoulder
					{
						OFFSET 8.476499 7.247704 -3.868750
						CHANNELS 3 Xrotation Yrotation Zrotation
						JOINT LeftShoulder_split
						{
							OFFSET 8.476499 7.247704 -3.868750
							CHANNELS 3 Xrotation Yrotation Zrotation
							JOINT LeftArm
							{
								OFFSET 9.308998 -2.777710 0.208600
								CHANNELS 3 Xrotation Yrotation Zrotation
								JOINT LeftForeArm
								{
									OFFSET 29.972298 0.000000 0.000000
									CHANNELS 3 Xrotation Yrotation Zrotation
									JOINT LeftHand
									{
										OFFSET 26.026505 0.000000 0.000000
										CHANNELS 3 Xrotation Yrotation Zrotation
										JOINT LeftHandThumb1
										{
											OFFSET 12.240501 -7.147949 9.207150
											CHANNELS 3 Xrotation Yrotation Zrotation
											JOINT LeftHandThumb2
											{
												OFFSET 4.138618 -2.389435 2.389433
												CHANNELS 3 Xrotation Yrotation Zrotation
												JOINT LeftHandThumb3
												{
													OFFSET 2.726913 -1.574387 1.574386
													CHANNELS 3 Xrotation Yrotation Zrotation
													JOINT LeftHandThumb4
													{
														OFFSET 3.941010 -2.275345 2.275342
														CHANNELS 3 Xrotation Yrotation Zrotation
														End Site
														{
															OFFSET 0.000000 0.000000 0.000000
														}
													}
												}
											}
										}
										JOINT LeftHandIndex1
										{
											OFFSET 24.424698 -1.985611 5.953459
											CHANNELS 3 Xrotation Yrotation Zrotation
											JOINT LeftHandIndex2
											{
												OFFSET 6.426697 0.000000 0.000000
												CHANNELS 3 Xrotation Yrotation Zrotation
												JOINT LeftHandIndex3
												{
													OFFSET 5.337898 0.000000 0.000000
													CHANNELS 3 Xrotation Yrotation Zrotation
													JOINT LeftHandIndex4
													{
														OFFSET 4.409401 0.000000 0.000000
														CHANNELS 3 Xrotation Yrotation Zrotation
														End Site
														{
															OFFSET 0.000000 0.000000 0.000000
														}
													}
												}
											}
										}
										JOINT LeftHandMiddle1
										{
											OFFSET 23.810104 0.000000 0.000000
											CHANNELS 3 Xrotation Yrotation Zrotation
											JOINT LeftHandMiddle2
											{
												OFFSET 7.176498 0.000000 0.000000
												CHANNELS 3 Xrotation Yrotation Zrotation
												JOINT LeftHandMiddle3
												{
													OFFSET 6.774902 0.000000 0.000000
													CHANNELS 3 Xrotation Yrotation Zrotation
													JOINT LeftHandMiddle4
													{
														OFFSET 5.403328 0.000000 0.000000
														CHANNELS 3 Xrotation Yrotation Zrotation
														End Site
														{
															OFFSET 0.000000 0.000000 0.000000
														}
													}
												}
											}
										}
										JOINT LeftHandRing1
										{
											OFFSET 22.908401 -0.839279 -6.020567
											CHANNELS 3 Xrotation Yrotation Zrotation
											JOINT LeftHandRing2
											{
												OFFSET 6.337502 0.000000 0.000000
												CHANNELS 3 Xrotation Yrotation Zrotation
												JOINT LeftHandRing3
												{
													OFFSET 5.779297 0.000000 0.000000
													CHANNELS 3 Xrotation Yrotation Zrotation
													JOINT LeftHandRing4
													{
														OFFSET 4.965698 0.000000 0.000000
														CHANNELS 3 Xrotation Yrotation Zrotation
														End Site
														{
															OFFSET 0.000000 0.000000 0.000000
														}
													}
												}
											}
										}
										JOINT LeftHandPinky1
										{
											OFFSET 20.037003 -1.530319 -10.950146
											CHANNELS 3 Xrotation Yrotation Zrotation
											JOINT LeftHandPinky2
											{
												OFFSET 5.254700 0.000000 0.000000
												CHANNELS 3 Xrotation Yrotation Zrotation
												JOINT LeftHandPinky3
												{
													OFFSET 4.810204 0.000000 0.000000
													CHANNELS 3 Xrotation Yrotation Zrotation
													JOINT LeftHandPinky4
													{
														OFFSET 3.647202 0.000000 0.000000
														CHANNELS 3 Xrotation Yrotation Zrotation
														End Site
														{
															OFFSET 0.000000 0.000000 0.000000
														}
													}
												}
											}
										}
									}
								}
							}
						}
					}
					JOINT RightShoulder
					{
						OFFSET -7.570500 7.247704 -3.868750
						CHANNELS 3 Xrotation Yrotation Zrotation
						JOINT RightShoulder_split
						{
							OFFSET -7.570500 7.247704 -3.868750
							CHANNELS 3 Xrotation Yrotation Zrotation
							JOINT RightArm
							{
								OFFSET -9.308998 -2.777710 0.208500
								CHANNELS 3 Xrotation Yrotation Zrotation
								JOINT RightForeArm
								{
									OFFSET -29.972300 0.000000 0.000000
									CHANNELS 3 Xrotation Yrotation Zrotation
									JOINT RightHand
									{
										OFFSET -26.026505 0.000000 0.000000
										CHANNELS 3 Xrotation Yrotation Zrotation
										JOINT RightHandThumb1
										{
											OFFSET -12.240601 -7.148026 9.207092
											CHANNELS 3 Xrotation Yrotation Zrotation
											JOINT RightHandThumb2
											{
												OFFSET -4.138618 -2.389435 2.389433
												CHANNELS 3 Xrotation Yrotation Zrotation
												JOINT RightHandThumb3
												{
													OFFSET -2.726974 -1.574417 1.574421
													CHANNELS 3 Xrotation Yrotation Zrotation
													JOINT RightHandThumb4
													{
														OFFSET -3.941010 -2.275345 2.275343
														CHANNELS 3 Xrotation Yrotation Zrotation
														End Site
														{
															OFFSET 0.000000 0.000000 0.000000
														}
													}
												}
											}
										}
										JOINT RightHandIndex1
										{
											OFFSET -24.424698 -1.985657 5.953444
											CHANNELS 3 Xrotation Yrotation Zrotation
											JOINT RightHandIndex2
											{
												OFFSET -6.426697 0.000000 0.000000
												CHANNELS 3 Xrotation Yrotation Zrotation
												JOINT RightHandIndex3
												{
													OFFSET -5.337898 0.000000 0.000000
													CHANNELS 3 Xrotation Yrotation Zrotation
													JOINT RightHandIndex4
													{
														OFFSET -4.409401 0.000000 0.000000
														CHANNELS 3 Xrotation Yrotation Zrotation
														End Site
														{
															OFFSET 0.000000 0.000000 0.000000
														}
													}
												}
											}
										}
										JOINT RightHandMiddle1
										{
											OFFSET -23.810097 0.000000 0.000000
											CHANNELS 3 Xrotation Yrotation Zrotation
											JOINT RightHandMiddle2
											{
												OFFSET -7.176498 0.000000 0.000000
												CHANNELS 3 Xrotation Yrotation Zrotation
												JOINT RightHandMiddle3
												{
													OFFSET -6.774902 0.000000 0.000000
													CHANNELS 3 Xrotation Yrotation Zrotation
													JOINT RightHandMiddle4
													{
														OFFSET -5.403328 0.000000 0.000000
														CHANNELS 3 Xrotation Yrotation Zrotation
														End Site
														{
															OFFSET 0.000000 0.000000 0.000000
														}
													}
												}
											}
										}
										JOINT RightHandRing1
										{
											OFFSET -22.908302 -0.839325 -6.020576
											CHANNELS 3 Xrotation Yrotation Zrotation
											JOINT RightHandRing2
											{
												OFFSET -6.337502 0.000000 0.000000
												CHANNELS 3 Xrotation Yrotation Zrotation
												JOINT RightHandRing3
												{
													OFFSET -5.779297 0.000000 0.000000
													CHANNELS 3 Xrotation Yrotation Zrotation
													JOINT RightHandRing4
													{
														OFFSET -4.965698 0.000000 0.000000
														CHANNELS 3 Xrotation Yrotation Zrotation
														End Site
														{
															OFFSET 0.000000 0.000000 0.000000
														}
													}
												}
											}
										}
										JOINT RightHandPinky1
										{
											OFFSET -20.037003 -1.530334 -10.950259
											CHANNELS 3 Xrotation Yrotation Zrotation
											JOINT RightHandPinky2
											{
												OFFSET -5.254700 0.000000 0.000000
												CHANNELS 3 Xrotation Yrotation Zrotation
												JOINT RightHandPinky3
												{
													OFFSET -4.810204 0.000000 0.000000
													CHANNELS 3 Xrotation Yrotation Zrotation
													JOINT RightHandPinky4
													{
														OFFSET -3.647202 0.000000 0.000000
														CHANNELS 3 Xrotation Yrotation Zrotation
														End Site
														{
															OFFSET 0.000000 0.000000 0.000000
														}
													}
												}
											}
										}
									}
								}
							}
						}
					}
				}
			}
		}
	}
	JOINT LeftUpLeg
	{
		OFFSET 15.427100 -6.655098 0.678600
		CHANNELS 3 Xrotation Yrotation Zrotation
		JOINT LeftLeg
		{
			OFFSET 4.081073 -39.591068 13.024000
			CHANNELS 3 Xrotation Yrotation Zrotation
			JOINT LeftFoot
			{
				OFFSET -4.081074 -37.707932 -15.979700
				CHANNELS 3 Xrotation Yrotation Zrotation
				JOINT LeftToeBase
				{
					OFFSET 5.346399 -15.068900 20.645000
					CHANNELS 3 Xrotation Yrotation Zrotation
					JOINT LeftToe_End
					{
						OFFSET 2.754700 0.931300 11.300900
						CHANNELS 3 Xrotation Yrotation Zrotation
						End Site
						{
							OFFSET 0.000000 0.000000 0.000000
						}
					}
				}
			}
		}
	}
	JOINT RightUpLeg
	{
		OFFSET -15.569500 -6.655098 0.678600
		CHANNELS 3 Xrotation Yrotation Zrotation
		JOINT RightLeg
		{
			OFFSET -4.081825 -39.591045 13.023800
			CHANNELS 3 Xrotation Yrotation Zrotation
			JOINT RightFoot
			{
				OFFSET 4.081824 -37.707954 -15.979600
				CHANNELS 3 Xrotation Yrotation Zrotation
				JOINT RightToeBase
				{
					OFFSET -5.346400 -15.068900 20.645000
					CHANNELS 3 Xrotation Yrotation Zrotation
					JOINT RightToe_End
					{
						OFFSET -2.754700 0.931300 11.300900
						CHANNELS 3 Xrotation Yrotation Zrotation
						End Site
						{
							OFFSET 0.000000 0.000000 0.000000
						}
					}
				}
			}
		}
	}
}
MOTION
Frames: 4
Frame Time: 0.016667
-4.835839 91.651749 -9.128153 -9.382198 -0.963856 3.536941 7.166040 1.556284 -4.526484 14.244013 3.269501 -3.077380 0.000000 0.000000 0.000000 14.269163 3.169304 -3.056461 34.427070 0.786426 -4.647341 -1.158472 2.164347 -5.573709 0.000001 -0.000000 -0.000000 -1.697380 -21.196983 -25.775457 0.000000 0.000000 0.000000 -1.040195 -44.501770 -31.977887 4.422135 -24.531576 1.305851 -9.189774 -9.383457 -4.673702 -20.843961 2.778274 -4.205198 -15.861890 33.847819 10.250614 -0.000005 0.000008 -0.000014 0.000001 -0.000000 0.000000 -3.032242 19.342225 -21.628902 6.299662 9.746914 -60.829023 0.000005 -0.000000 0.000001 0.000001 -0.000001 0.000000 -13.487440 18.094995 -22.029643 6.757702 12.670223 -69.483685 0.000009 0.000002 0.000007 -0.000001 0.000002 -0.000001 -15.276637 16.701599 -37.493357 3.110980 12.310333 -81.609552 -0.000004 0.000006 -0.000012 0.000000 0.000000 -0.000003 -30.922657 24.752740 -41.175000 6.897628 7.241767 -89.331395 -0.000001 0.000003 0.000001 -0.000002 0.000001 -0.000001 -1.956288 23.252491 25.557183 0.000000 0.000000 0.000000 -0.642661 20.673900 37.850146 388.848024 40.014383 -373.261177 -9.479960 7.418345 17.742892 -21.511939 -2.863856 5.102371 -16.456410 -31.619596 -10.828975 -0.000004 0.000002 -0.000018 0.000001 -0.000001 -0.000000 -1.117324 -20.400091 22.512870 6.671891 -9.934596 63.001023 0.000002 -0.000005 0.000006 0.000000 0.000000 0.000000 -13.816715 -17.423239 21.320929 6.561182 -12.925885 68.651106 0.000004 -0.000003 -0.000005 -0.000000 -0.000003 0.000000 -14.137733 -15.831723 36.119195 3.239860 -12.615798 81.908318 -0.000003 0.000003 0.000012 -0.000001 0.000000 -0.000001 -31.246900 -25.471707 41.789747 6.380861 -7.478751 85.668959 -0.000001 0.000000 -0.000007 0.000003 -0.000000 0.000001 -6.118016 8.558767 -3.953921 23.926011 -0.532842 -0.352025 -9.052471 4.043821 2.965047 -0.000004 -0.000005 0.000000 -0.000000 -0.000001 -0.000000 -9.852968 -14.310132 -16.091745 28.159072 1.259457 0.700887 -8.834546 -15.066357 4.503145 -0.000108 -0.000005 0.000239 -0.000000 0.000004 0.000000 
-4.460110 92.064339 -9.027817 -9.890348 -1.271566 3.762329 6.799829 1.619262 -4.688987 13.499549 3.300434 -3.157294 0.000000 0.000000 0.000000 13.525418 3.199130 -3.135812 33.353415 1.110182 -4.334501 -1.596101 2.537175 -5.856433 0.000003 -0.000001 -0.000002 -1.205556 -20.666494 -24.364069 0.000000 0.000000 0.000000 1.602666 -41.933595 -31.598234 4.490920 -26.563560 0.875684 -9.122670 -9.161227 -3.757680 -20.813314 1.465113 -4.329346 -17.962352 34.591438 10.894311 -0.000002 0.000008 -0.000014 0.000001 -0.000000 -0.000000 -2.865775 20.397636 -21.773243 6.720262 9.983963 -64.054907 0.000002 0.000003 0.000001 -0.000001 -0.000003 0.000001 -14.124286 18.570904 -22.021452 7.166276 13.162450 -72.156072 0.000006 0.000001 0.000006 -0.000000 0.000000 -0.000001 -15.699011 16.729322 -37.472183 3.380882 13.021838 -85.361211 -0.000002 0.000007 -0.000013 0.000000 -0.000000 -0.000001 -32.764960 25.881125 -41.122411 7.141893 7.587548 -92.296872 -0.000001 -0.000001 0.000004 -0.000003 -0.000000 0.000001 -1.348473 22.309546 23.910462 0.000000 0.000000 0.000000 2.405175 20.579672 39.044817 390.735042 42.386112 -375.654503 -9.510662 7.694568 16.288760 -21.155638 -1.499663 4.801386 -18.479114 -32.518551 -11.171440 0.000005 0.000001 -0.000019 0.000002 0.000000 -0.000002 -1.414014 -21.180225 23.136494 7.201674 -10.089889 66.392219 0.000002 -0.000006 0.000006 -0.000000 0.000000 -0.000000 -13.696613 -18.828224 22.659696 7.302383 -13.300223 72.456115 0.000003 -0.000003 -0.000006 0.000000 0.000000 0.000001 -14.448094 -16.935556 37.866016 3.852949 -13.239552 86.752125 -0.000004 0.000004 0.000011 -0.000001 -0.000001 -0.000004 -32.393535 -27.169719 42.613690 7.302995 -7.722415 91.940439 0.000003 0.000000 -0.000008 0.000001 -0.000000 -0.000001 -4.644288 8.998819 -4.540931 22.593356 -0.517783 -0.344050 -8.625919 3.888677 3.233401 -0.000008 -0.000002 -0.000001 0.000000 0.000000 0.000000 -8.963070 -14.297918 -16.550453 27.172265 1.229851 0.686241 -8.229320 -14.766596 4.831828 -0.000094 -0.000002 0.000215 -0.000000 0.000003 0.000000 
-4.094681 92.304237 -8.964127 -10.183884 -1.482965 3.959908 6.446339 1.635379 -4.829366 12.785440 3.259336 -3.237265 0.000000 0.000000 0.000000 12.811447 3.157067 -3.215350 32.190975 1.385668 -4.182462 -2.117601 2.779013 -5.803773 0.000001 0.000001 -0.000000 -0.606959 -19.983607 -22.751681 0.000000 0.000000 0.000000 3.591668 -39.451125 -31.646930 5.236546 -28.036350 0.947480 -9.048455 -8.981128 -2.662401 -20.797718 0.593385 -4.405174 -19.377563 35.076788 11.340733 -0.000002 0.000008 -0.000014 0.000000 0.000000 0.000001 -2.843859 21.049274 -21.555218 6.983299 10.133572 -66.089949 0.000003 0.000002 -0.000002 -0.000002 0.000002 0.000001 -14.712801 18.654532 -21.681836 7.427306 13.475982 -73.762204 0.000008 -0.000001 0.000006 0.000000 -0.000001 0.000001 -16.114197 16.583365 -37.151369 3.571191 13.484253 -87.649495 -0.000002 0.000006 -0.000010 0.000002 0.000002 -0.000000 -34.046806 26.463747 -40.933693 7.318344 7.814292 -94.101340 -0.000002 -0.000002 -0.000001 0.000002 -0.000001 -0.000002 -0.713652 21.402169 22.136616 0.000000 0.000000 0.000000 4.746091 20.510846 40.324867 391.595673 44.303657 -377.134769 -9.517307 8.185769 14.466669 -20.919478 -0.599321 4.588741 -19.743207 -33.270589 -11.347301 -0.000002 0.000002 -0.000018 0.000002 -0.000001 -0.000000 -1.732045 -21.630734 23.353231 7.525113 -10.184750 68.548530 0.000001 -0.000006 0.000006 -0.000000 0.000000 0.000000 -13.647373 -19.748111 23.428138 7.815846 -13.530620 74.982138 0.000004 -0.000004 -0.000005 0.000001 -0.000001 -0.000000 -14.832517 -17.503022 38.828058 4.283395 -13.641163 89.897884 -0.000003 0.000004 0.000012 0.000001 -0.000000 0.000001 -33.250590 -28.094743 42.857917 7.902222 -7.871605 96.036988 0.000001 0.000000 -0.000011 -0.000001 -0.000001 -0.000001 -3.696839 9.381509 -5.066298 21.728661 -0.509335 -0.339550 -8.358115 3.716328 3.508143 0.000010 0.000000 0.000001 0.000000 0.000000 -0.000000 -8.500236 -14.257016 -17.021354 26.572714 1.222070 0.681329 -7.790173 -14.553007 5.168033 -0.000110 0.000010 0.000237 -0.000000 0.000002 0.000000 
-3.758886 92.406387 -8.907640 -10.275872 -1.646004 4.142682 6.100508 1.641965 -4.967460 12.086297 3.177757 -3.317954 0.000000 0.000000 0.000000 12.112675 3.083688 -3.298397 30.904851 1.645484 -3.990194 -2.591302 2.961592 -5.738687 -0.000001 0.000000 -0.000001 0.051155 -19.230218 -20.982123 0.000000 0.000000 0.000000 4.852675 -36.960503 -32.152344 6.739175 -28.723865 1.369270 -8.972973 -8.751107 -1.470429 -20.780041 0.131087 -4.433519 -20.134389 35.301679 11.597078 -0.000004 0.000008 -0.000014 -0.000001 -0.000000 -0.000000 -2.943786 21.290191 -21.292066 7.059017 10.202942 -66.897516 0.000003 0.000008 0.000000 -0.000000 0.000002 0.000001 -15.195122 18.667286 -21.192996 7.557123 13.632481 -74.479361 0.000007 0.000003 0.000006 -0.000001 0.000005 -0.000002 -16.474345 16.391645 -36.743771 3.655769 13.711825 -88.527994 -0.000003 0.000006 -0.000007 -0.000002 -0.000001 0.000000 -34.882582 26.667347 -40.681645 7.415475 7.943074 -95.048578 -0.000001 -0.000002 0.000001 0.000001 0.000001 0.000002 -0.076874 20.530177 20.303506 0.000000 0.000000 0.000000 6.411382 20.396576 41.725168 391.669330 45.382420 -377.619794 -9.496797 8.760630 12.468577 -20.787046 -0.131131 4.453342 -20.394036 -33.885494 -11.409645 0.000001 0.000001 -0.000017 0.000003 0.000000 -0.000001 -1.978514 -21.846036 23.322098 7.606888 -10.233837 69.363508 0.000002 -0.000005 0.000006 0.000000 0.000000 -0.000000 -13.665518 -20.156383 23.639281 8.028584 -13.635645 76.097931 0.000004 -0.000003 -0.000004 -0.000000 0.000000 0.000000 -15.196122 -17.695956 39.083811 4.414968 -13.872902 91.092512 -0.000004 0.000003 0.000011 0.000001 -0.000000 -0.000001 -33.824347 -28.399928 42.754454 8.070494 -7.958753 97.642677 -0.000000 0.000001 -0.000009 -0.000000 -0.000001 0.000001 -3.183683 9.741859 -5.527353 21.254381 -0.504131 -0.337270 -8.255438 3.543259 3.770764 0.000004 0.000001 0.000001 -0.000000 -0.000000 0.000000 -8.408865 -14.154422 -17.495671 26.337302 1.208596 0.675238 -7.534213 -14.369772 5.439918 -0.000088 -0.000008 0.000201 0.000000 0.000001 -0.000000 
